PathFileType	4	(X/Y/Z)	D:\TRACE\spotREDO_2-26-24\spot_Both_Motion_3_4-platform.trc
DataRate	CameraRate	NumFrames	NumMarkers	Units	OrigDataRate	OrigDataStartFrame	OrigNumFrames
100.00	100.00	      30	5	mm	100.00	3501	      7000
Frame#	Time	Left_Front			Right_Front			Left_Aft			Right_Aft			Post			
		X1	Y1	Z1	X2	Y2	Z2	X3	Y3	Z3	X4	Y4	Z4	X5	Y5	Z5	

3501	35.000	-671.53491	8.82963	-572.36133	742.67896	16.57318	-487.56961	-743.33667	-9.29706	646.14087	826.02533	-1.77230	651.40570	22.36402	643.55206	-965.48663	
3502	35.010	-671.66418	8.87837	-572.37787	742.63379	16.53461	-487.60699	-743.35828	-9.23610	646.15826	825.89691	-1.65965	651.46039	22.38566	643.54865	-965.48596	
3503	35.020	-671.74139	8.89591	-572.34888	742.56165	16.57831	-487.57382	-743.39966	-9.34577	646.17590	825.99469	-1.79504	651.41461	22.38983	643.55396	-965.44702	
3504	35.030	-671.72614	8.85395	-572.36353	742.55756	16.48956	-487.59778	-743.42230	-9.24071	646.19336	825.86774	-1.72757	651.42670	22.35547	643.56842	-965.40765	
3505	35.040	-671.79395	8.83800	-572.39764	742.53143	16.55115	-487.60791	-743.49280	-9.28152	646.15723	825.82904	-1.63527	651.42377	22.36504	643.56372	-965.33862	
3506	35.050	-671.84222	8.81400	-572.43866	742.48090	16.53507	-487.60413	-743.53278	-9.25560	646.18231	825.73047	-1.58518	651.41534	22.27348	643.54742	-965.33380	
3507	35.060	-671.93134	8.85449	-572.42163	742.44678	16.50883	-487.63251	-743.60388	-9.16122	646.19635	825.65869	-1.53212	651.43146	22.28065	643.52734	-965.29700	
3508	35.070	-671.98663	8.85448	-572.39966	742.48889	16.46588	-487.54333	-743.58868	-9.08725	646.12897	825.66327	-1.56537	651.43518	22.36878	643.44171	-965.31366	
3509	35.080	-671.84393	8.79586	-572.53418	742.48828	16.42633	-487.54871	-743.62036	-8.95976	646.10236	825.58124	-1.45910	651.43427	22.40165	643.35315	-965.33282	
3510	35.090	-671.98712	8.77753	-572.49359	742.37183	16.55065	-487.66446	-743.67413	-8.73707	646.04004	825.58771	-1.41477	651.42346	22.42903	643.12311	-965.43719	
3511	35.100	-672.02509	8.62501	-572.54022	742.37482	16.34710	-487.69141	-743.71472	-8.50383	646.03143	825.49463	-1.18878	651.36725	22.25726	642.80231	-965.65875	
3512	35.110	-672.06531	8.57141	-572.52771	742.55609	15.75323	-487.48169	-743.69489	-8.45661	645.95740	825.58112	-1.33116	651.29541	22.12235	642.62628	-965.91748	
3513	35.120	-672.03076	8.47042	-572.55463	742.44220	15.55702	-487.45306	-743.80652	-8.44640	646.05707	825.46826	-1.23073	651.31421	21.90702	642.57428	-966.16522	
3514	35.130	-672.08136	8.41606	-572.46454	742.43683	15.75337	-487.50711	-743.84332	-8.59319	645.95013	825.48608	-1.25568	651.30035	22.02712	642.39380	-966.43158	
3515	35.140	-672.15820	8.43782	-572.50024	742.35150	15.78220	-487.57156	-743.91199	-8.51442	645.97412	825.43402	-1.28755	651.32831	21.86180	642.38306	-966.66467	
3516	35.150	-672.24017	8.52183	-572.49768	742.45880	15.68613	-487.52109	-743.93140	-8.37674	645.92548	825.43152	-1.22403	651.31305	21.78297	642.48145	-966.76709	
3517	35.160	-672.17371	8.49575	-572.47882	742.44714	15.67939	-487.49478	-743.84485	-8.28293	646.01874	825.50140	-1.08999	651.29010	21.78440	642.46637	-966.90820	
3518	35.170	-672.19189	8.47376	-572.48199	742.47229	15.63807	-487.50217	-743.82056	-8.20648	646.01270	825.50238	-1.16048	651.28369	21.89779	642.33466	-966.79150	
3519	35.180	-671.98004	8.25941	-572.55255	742.41077	15.54100	-487.57126	-743.86584	-8.32348	645.94757	825.52686	-1.15917	651.23041	21.98072	642.20074	-966.52448	
3520	35.190	-672.04095	8.08741	-572.49066	742.41290	15.48912	-487.61868	-743.89459	-8.36591	645.89923	825.50159	-1.16183	651.25256	21.95179	642.05896	-966.45642	
3521	35.200	-672.04462	7.90890	-572.51416	742.41315	15.32106	-487.57471	-743.84784	-8.22923	645.91327	825.56104	-1.06725	651.19330	21.90452	642.00287	-966.32361	
3522	35.210	-672.06879	7.90728	-572.55695	742.54413	15.14343	-487.61221	-743.78870	-8.03551	645.91931	825.76312	-0.65316	651.18060	21.85452	641.94617	-966.23810	
3523	35.220	-672.27887	7.94810	-572.47357	742.50000	15.10694	-487.64474	-743.76318	-7.87907	645.88025	825.74127	-0.45528	651.15411	21.92644	641.66162	-966.23175	
3524	35.230	-672.25433	7.69354	-572.57117	742.44507	14.99731	-487.76767	-743.86969	-7.77309	645.83002	825.53540	-0.30750	651.18878	21.78392	641.43237	-966.30066	
3525	35.240	-672.16370	7.27048	-572.66693	742.32532	14.74611	-487.89917	-743.92584	-7.69330	645.70752	825.55365	-0.34407	651.12909	21.55475	641.01740	-966.89685	
3526	35.250	-672.22461	7.13179	-572.72571	742.15039	14.72141	-488.03589	-743.97095	-7.56870	645.61096	825.34143	-0.17951	651.01514	21.68348	640.71674	-967.26520	
3527	35.260	-672.18884	7.05001	-572.76086	742.20367	14.73314	-488.01517	-743.84821	-7.40444	645.56738	825.42651	0.05971	650.93701	21.83520	640.34332	-967.96564	
3528	35.270	-672.16437	6.96514	-572.79614	742.26538	14.73869	-488.02682	-743.54407	-7.09293	645.69910	825.49402	0.36040	650.87579	21.98311	640.22607	-968.40155	
3529	35.280	-672.23944	6.74730	-572.81769	742.20453	14.63299	-488.10214	-743.59943	-6.93413	645.74695	825.39661	0.49464	650.86450	21.96539	640.05957	-968.83795	
3530	35.290	-672.28467	6.55219	-572.92554	742.19952	14.52052	-488.08426	-743.71136	-6.75286	645.66711	825.32410	0.62527	650.75897	21.74947	639.79810	-969.13751	
